<svg xmlns="http://www.w3.org/2000/svg" xmlns:xlink="http://www.w3.org/1999/xlink" width="19" height="23" viewBox="0 0 19 23"><defs><path id="rv80a" d="M909 637.873c-.027.08-.49 1.65-1.615 3.271-.974 1.402-1.981 2.797-3.571 2.825-1.564.03-2.066-.913-3.852-.913s-2.345.884-3.823.943c-1.534.056-2.703-1.514-3.683-2.911-2.005-2.854-3.536-8.069-1.478-11.588 1.02-1.748 2.846-2.855 4.826-2.884 1.507-.027 2.93 1.001 3.85 1.001.922 0 2.65-1.236 4.468-1.054.76.03 2.896.302 4.266 2.279-.109.07-2.548 1.466-2.518 4.379.03 3.479 3.095 4.636 3.13 4.652zm-9.53-11.573c-.177-1.32.484-2.696 1.24-3.558.84-.972 2.263-1.695 3.436-1.742.15 1.348-.4 2.7-1.214 3.673-.816.972-2.152 1.728-3.462 1.627z"/></defs><use fill="#fff" xlink:href="#rv80a" transform="translate(-890 -621)"/></svg>