<svg xmlns="http://www.w3.org/2000/svg" xmlns:xlink="http://www.w3.org/1999/xlink" width="33" height="20" viewBox="0 0 33 20"><defs><path id="2gkja" d="M1082.998 635.782c0 4.028-3.474 7.22-7.771 7.22-2.988 0-5.507-1.217-6.812-3.397h-3.853c-1.29 2.133-3.785 3.397-6.79 3.397-4.284 0-7.77-3.248-7.77-7.247 0-3.765 3.128-7.24 7.151-7.24 2.014 0 7.771-.011 7.771-.011.289-2.15 1.234-4.249 4.035-5.385.821-.333 1.781.019 2.14.789.358.767-.021 1.661-.844 1.996-1.248.505-1.81 1.366-2.044 2.596 0 0 5.449-.01 7.285-.01 4.158 0 7.503 3.427 7.502 7.292zm-22.039-.297c0-1.681-1.46-3.044-3.262-3.044-1.801 0-3.261 1.363-3.261 3.044 0 1.68 1.46 3.044 3.261 3.044 1.802 0 3.262-1.363 3.262-3.044zm16.24 0l.636-.593a1.157 1.157 0 0 0 0-1.716 1.368 1.368 0 0 0-1.841 0l-.635.592-.636-.592a1.366 1.366 0 0 0-1.84 0 1.158 1.158 0 0 0 0 1.716l.636.593-.635.592a1.159 1.159 0 0 0 0 1.717c.254.237.586.355.92.355.332 0 .664-.118.919-.355l.635-.592.635.592c.254.237.587.355.92.355.333 0 .666-.118.92-.355a1.158 1.158 0 0 0 0-1.717z"/></defs><use fill="#fff" xlink:href="#2gkja" transform="translate(-1050 -623)"/></svg>