<svg xmlns="http://www.w3.org/2000/svg" xmlns:xlink="http://www.w3.org/1999/xlink" width="23" height="26" viewBox="0 0 23 26"><defs><path id="iz9qa" d="M839.285 630.03v6.742c0 .853-.722 1.55-1.607 1.55h-.07c-.885 0-1.607-.696-1.607-1.55v-6.743c0-.85.722-1.549 1.607-1.549h.07c.883 0 1.607.699 1.607 1.55zm.77-1.302h14.89v10.647c0 .783-.664 1.421-1.476 1.421h-1.58v3.643c0 .855-.722 1.551-1.609 1.551h-.067c-.884 0-1.61-.695-1.61-1.551v-3.643h-2.206v3.643c0 .855-.724 1.551-1.61 1.551h-.069c-.883 0-1.607-.695-1.607-1.551v-3.643h-1.579c-.813 0-1.477-.638-1.477-1.421zm14.94-1.065c0 .142-.008.281-.02.42h-14.949a4.72 4.72 0 0 1-.021-.42c0-2.31 1.526-4.324 3.788-5.392l-1.255-1.865a.25.25 0 0 1 .079-.355.272.272 0 0 1 .37.075l1.297 1.93a8.76 8.76 0 0 1 3.216-.601c1.15 0 2.24.216 3.215.601l1.3-1.93a.27.27 0 0 1 .368-.075.25.25 0 0 1 .079.355l-1.254 1.865c2.261 1.068 3.788 3.082 3.787 5.392zm-10.24-2.745a.703.703 0 0 0-.72-.691c-.397 0-.72.307-.72.69 0 .385.323.693.72.693.398 0 .72-.308.72-.692zm6.929 0a.703.703 0 0 0-.719-.691c-.397 0-.72.307-.72.69 0 .385.323.693.72.693a.704.704 0 0 0 .719-.692zm7.315 5.111v6.743c0 .853-.722 1.55-1.608 1.55h-.068c-.884 0-1.61-.696-1.61-1.55v-6.743c0-.85.726-1.549 1.61-1.549h.068c.885 0 1.608.699 1.608 1.55z"/></defs><use fill="#fff" xlink:href="#iz9qa" transform="translate(-836 -620)"/></svg>